<svg id="visual" viewBox="0 0 900 600" width="900" height="600" xmlns="http://www.w3.org/2000/svg" xmlns:xlink="http://www.w3.org/1999/xlink" version="1.1"><rect x="0" y="0" width="900" height="600" fill="#002233"></rect><path d="M0 176L21.5 182.2C43 188.3 86 200.7 128.8 204.2C171.7 207.7 214.3 202.3 257.2 191.3C300 180.3 343 163.7 385.8 155C428.7 146.3 471.3 145.7 514.2 152.7C557 159.7 600 174.3 642.8 175.5C685.7 176.7 728.3 164.3 771.2 166.5C814 168.7 857 185.3 878.5 193.7L900 202L900 0L878.5 0C857 0 814 0 771.2 0C728.3 0 685.7 0 642.8 0C600 0 557 0 514.2 0C471.3 0 428.7 0 385.8 0C343 0 300 0 257.2 0C214.3 0 171.7 0 128.8 0C86 0 43 0 21.5 0L0 0Z" fill="#0066FF" stroke-linecap="round" stroke-linejoin="miter"></path></svg>